HIERARCHY
ROOT Pelvis
{
	OFFSET 0.000000 0.000000 0.000000
	CHANNELS 6 Xposition Yposition Zposition Zrotation Yrotation Xrotation 
	JOINT Left_hip
	{
		OFFSET 0.076090 -0.089427 -0.010735
		CHANNELS 3 Zrotation Yrotation Xrotation
		JOINT Left_knee
		{
			OFFSET 0.030200 -0.359518 -0.003501
			CHANNELS 3 Zrotation Yrotation Xrotation
			JOINT Left_ankle
			{
				OFFSET -0.011005 -0.371022 -0.045888
				CHANNELS 3 Zrotation Yrotation Xrotation
				JOINT Left_foot
				{
					OFFSET 0.023930 -0.052103 0.111084
					CHANNELS 3 Zrotation Yrotation Xrotation
					End Site
					{
						OFFSET 0.000000 0.000000 0.000000
					}
				}
			}
		}
	}
	JOINT Right_hip
	{
		OFFSET -0.073836 -0.088112 -0.007709
		CHANNELS 3 Zrotation Yrotation Xrotation
		JOINT Right_knee
		{
			OFFSET -0.035715 -0.367809 -0.006536
			CHANNELS 3 Zrotation Yrotation Xrotation
			JOINT Right_ankle
			{
				OFFSET 0.013718 -0.371958 -0.043815
				CHANNELS 3 Zrotation Yrotation Xrotation
				JOINT Right_foot
				{
					OFFSET -0.021936 -0.046387 0.114542
					CHANNELS 3 Zrotation Yrotation Xrotation
					End Site
					{
						OFFSET 0.000000 0.000000 0.000000
					}
				}
			}
		}
	}
	JOINT Spine1
	{
		OFFSET -0.001865 0.102064 -0.019455
		CHANNELS 3 Zrotation Yrotation Xrotation
		JOINT Spine2
		{
			OFFSET 0.003082 0.129260 -0.001938
			CHANNELS 3 Zrotation Yrotation Xrotation
			JOINT Spine3
			{
				OFFSET 0.001104 0.048093 0.026561
				CHANNELS 3 Zrotation Yrotation Xrotation
				JOINT Neck
				{
					OFFSET -0.002010 0.204222 -0.047183
					CHANNELS 3 Zrotation Yrotation Xrotation
					JOINT Head
					{
						OFFSET 0.005050 0.063649 0.048489
						CHANNELS 3 Zrotation Yrotation Xrotation
						End Site
						{
							OFFSET 0.000000 0.000000 0.000000
						}
					}
				}
				JOINT Left_collar
				{
					OFFSET 0.072979 0.114065 -0.031633
					CHANNELS 3 Zrotation Yrotation Xrotation
					JOINT Left_shoulder
					{
						OFFSET 0.083419 0.032092 -0.006530
						CHANNELS 3 Zrotation Yrotation Xrotation
						JOINT Left_elbow
						{
							OFFSET 0.239393 -0.012014 -0.025060
							CHANNELS 3 Zrotation Yrotation Xrotation
							JOINT Left_wrist
							{
								OFFSET 0.227297 0.008116 0.000384
								CHANNELS 3 Zrotation Yrotation Xrotation
								JOINT Left_palm
								{
									OFFSET 0.074607 -0.009248 -0.012277
									CHANNELS 3 Zrotation Yrotation Xrotation
									End Site
									{
										OFFSET 0.000000 0.000000 0.000000
									}
								}
							}
						}
					}
				}
				JOINT Right_collar
				{
					OFFSET -0.074980 0.111880 -0.037894
					CHANNELS 3 Zrotation Yrotation Xrotation
					JOINT Right_shoulder
					{
						OFFSET -0.087565 0.034353 -0.009323
						CHANNELS 3 Zrotation Yrotation Xrotation
						JOINT Right_elbow
						{
							OFFSET -0.236838 -0.013719 -0.019794
							CHANNELS 3 Zrotation Yrotation Xrotation
							JOINT Right_wrist
							{
								OFFSET -0.235053 0.006433 -0.003853
								CHANNELS 3 Zrotation Yrotation Xrotation
								JOINT Right_palm
								{
									OFFSET -0.075499 -0.006894 -0.009792
									CHANNELS 3 Zrotation Yrotation Xrotation
									End Site
									{
										OFFSET 0.000000 0.000000 0.000000
									}
								}
							}
						}
					}
				}
			}
		}
	}
}
MOTION
Frames: 8
Frame Time: 0.100000
0.000000 0.000000 0.000000 176.396966 26.034744 -11.535832 2.512670 0.110422 6.177425 -2.115670 -10.504813 -7.663212 -1.551184 6.037575 -5.758822 2.927541 7.157888 -3.252071 -0.350899 -1.434554 7.524897 3.004774 5.264285 -7.678198 4.961186 -10.773785 -10.458058 -6.857456 6.135392 5.752740 2.896812 0.995445 2.257159 1.110651 -2.453906 0.459203 1.381878 -1.773927 -0.332467 -1.652390 4.595632 -15.733527 -3.869383 -2.694493 -2.746831 -30.378225 -2.484734 1.519327 -52.150980 -8.248708 8.964193 4.065326 -10.648700 8.680728 -6.115059 -1.178444 1.528219 -10.077648 -5.103469 -10.810055 30.223258 4.668775 3.167679 47.188305 3.849945 13.123299 -7.861059 12.514650 -3.982931 4.723661 -0.898448 -0.461500 12.566888 7.668463 -6.888794 
-0.002193 0.000115 -0.001106 176.287825 25.896671 -11.714380 2.589381 0.159390 6.522642 -2.218371 -10.778743 -8.026804 -1.817838 6.208438 -5.616971 3.375532 7.050616 -3.400870 -0.429565 -1.424315 7.562446 3.055359 5.478597 -7.500949 5.152835 -11.001532 -10.456205 -7.289782 6.259334 5.416008 2.990812 0.905197 2.175213 1.226598 -2.438145 0.651548 1.456056 -1.863686 -0.009182 -1.458750 4.503451 -15.532409 -3.829844 -2.765076 -2.613307 -30.426891 -1.652939 1.671538 -52.379125 -7.210998 8.585382 3.831920 -8.021316 8.507420 -6.249741 -0.875185 1.553813 -10.076458 -5.133736 -11.291914 30.188585 4.023017 3.230477 47.131049 3.269477 13.127773 -7.553242 11.675509 -3.776712 4.668366 -1.023768 -0.428555 12.633114 7.619296 -7.004204 
-0.003762 0.000268 -0.001828 176.217304 25.582096 -11.992107 2.533580 0.272998 6.820321 -2.163851 -10.768040 -7.993178 -1.858134 6.379874 -5.641288 3.574757 7.056556 -3.609769 -0.369133 -1.400784 7.600719 2.969485 5.675335 -7.144021 5.343378 -11.256331 -10.538175 -7.692363 6.759330 5.271804 3.029498 0.855734 1.974859 1.337268 -2.352479 0.606337 1.420540 -1.899963 0.210510 -0.964801 4.739368 -14.760723 -3.946686 -2.647147 -0.937406 -30.749278 -1.157545 1.794094 -52.573767 -7.007840 8.512350 3.508746 -6.769920 8.389775 -6.470822 -0.698351 1.751383 -10.082383 -5.207910 -11.455372 30.501960 3.668221 3.266132 46.842286 3.221788 13.153957 -7.183863 10.405181 -3.995908 4.793873 -1.157724 -0.072153 12.671658 7.572233 -7.008946 
-0.002648 0.000297 -0.002471 176.215187 25.018167 -12.178058 2.861740 0.405322 7.139929 -2.478646 -10.569199 -8.314718 -1.339752 6.222749 -5.099085 2.895416 7.231947 -3.465640 -0.307503 -1.297473 7.330226 3.136184 5.831622 -6.559558 4.781158 -11.424846 -10.442982 -7.381284 7.432415 5.822324 3.116077 0.817111 1.472083 1.516735 -2.632190 0.662362 1.503613 -1.968493 -0.044476 -1.349155 5.833419 -12.653854 -4.518036 -1.548028 1.653565 -30.274929 -4.101878 2.070638 -52.448850 -9.160667 8.736479 1.800309 -1.976661 8.789706 -8.066848 0.493431 3.202682 -10.232696 -5.315767 -12.079340 30.144047 5.424866 3.996662 46.111508 4.758955 13.021376 -6.225478 7.632444 -3.380444 6.032614 -1.639810 0.807813 12.866464 7.603653 -7.273474 
0.001788 0.000113 -0.003623 176.533208 24.091032 -12.053858 2.873578 0.372670 6.950622 -2.469351 -9.962652 -8.124577 -0.265243 6.129411 -4.642361 1.533219 7.824485 -3.277951 -0.185911 -1.112907 6.847358 3.161042 5.929651 -6.202092 4.151368 -11.349706 -10.179783 -6.508913 8.175095 6.606047 3.138392 0.793844 1.110187 1.489559 -2.899209 0.415690 1.398021 -1.898186 -0.534429 -2.230685 8.666765 -9.787757 -5.597476 1.309986 4.569232 -29.437417 -7.765503 1.868353 -50.775913 -12.784790 8.980508 1.045164 -1.770819 9.406134 -9.144154 1.589010 5.118047 -10.615891 -5.526630 -12.130504 29.779381 7.438311 4.510914 45.262127 6.950039 13.268887 -6.117426 7.515154 -2.628352 6.698777 -1.805883 1.994977 13.353624 7.873900 -7.521903 
0.009816 0.000110 -0.005182 177.080178 23.162530 -11.527562 2.791273 0.183711 5.953544 -2.372072 -9.035100 -7.113133 -0.519839 6.274843 -4.629146 1.928676 8.482613 -3.861861 0.070541 -0.836366 5.766996 2.908472 6.068389 -5.555824 5.772868 -11.403285 -10.333895 -8.429768 10.067124 5.643683 3.048218 0.845333 1.387560 1.193348 -2.450638 -0.801356 1.057158 -1.592371 -0.632838 -2.698392 12.493246 -8.270464 -6.399123 4.480479 9.345285 -28.793809 -9.119505 0.596471 -48.928887 -16.730420 8.590480 3.263619 -7.677554 5.969131 -5.842054 0.775333 5.216988 -10.628706 -5.730549 -10.407140 29.887475 7.891656 4.056060 44.944486 8.464627 14.104061 -6.835830 10.535314 -4.293445 5.199893 -0.997586 2.143957 13.400396 7.917323 -7.121002 
0.018951 -0.001004 -0.004710 177.913659 22.403186 -11.069625 2.363451 -0.222673 4.225688 -2.260821 -7.715603 -4.006536 -0.716349 6.634511 -5.325373 2.433604 9.048998 -4.898350 -0.077794 -0.850297 5.329367 2.859848 6.112602 -5.409884 8.152232 -10.825509 -10.113602 -11.391187 11.530973 3.962889 2.980624 1.192028 2.146520 0.361876 -1.679720 -2.354001 0.369283 -1.052434 -0.353134 -3.150321 16.014807 -7.415863 -6.412459 7.901865 13.587454 -28.174113 -8.750469 -0.927171 -48.916782 -20.021336 7.932342 7.065133 -14.942068 0.724921 -2.754400 -0.722490 2.530614 -10.153350 -5.659975 -7.473244 29.657733 7.319825 3.587681 46.516691 9.239573 14.936518 -7.443783 12.667235 -6.520746 4.288202 -0.536644 0.998339 13.065952 7.730041 -6.295933 
0.023943 0.000219 -0.003833 177.745970 23.321586 -12.822030 1.100623 -2.187764 -1.497362 -1.216422 -6.443644 10.779544 0.859977 7.478580 -9.303065 1.030921 9.757571 -6.823004 -0.038089 -1.915402 7.623824 3.191543 6.354792 -5.488153 9.202959 -9.985251 -10.390971 -13.351045 11.706335 3.199162 4.073117 2.003545 5.044518 -0.235629 -1.897408 -2.769066 0.219514 -0.776001 0.738197 -5.774594 18.602818 -8.294850 -7.357852 12.287295 14.310778 -27.764333 -9.387462 -1.602621 -50.287612 -20.985476 7.764160 8.965890 -18.590604 -0.531188 -1.704508 -0.943785 0.508430 -10.171022 -5.631450 -4.873907 29.139528 7.596842 3.902722 46.943021 9.169528 14.840099 -7.254029 13.862759 -6.989360 3.735370 -0.428424 0.415246 13.575912 8.021435 -5.770670 
